# xmcd
# 
# Track frame offsets:
#     150
#     17671
#     32073
#     45253
#     62270
#     75929
#     94437
#     111063
#     128231
#     145277
#     155604
#     172412
#     188000
#     206877
#     224994
#     243370
#     259892
#     276000
# 
# Disc length: 3892
# 
# Revision: 3
# Processed by: cddbd v1.5.2PL0 Copyright (c) Steve Scherf et al.
# Submitted via: fre:ac v1.0.31
# 
DISCID=070f3212
DTITLE=Various Artist - Rahahitt
DYEAR=2003
DGENRE=Pop
TTITLE0=Kuldne Trio - Kaalujälgija
TTITLE1=Armin and Erich - Nõmme valss
TTITLE2=Marco - Suvepäev
TTITLE3=Anne Veski - kingi mulle õis
TTITLE4=Jüri Homenja - Viivuks ma veel näen
TTITLE5=Üllar Jörberg - Lõunamaa öös
TTITLE6=Laps - Laps
TTITLE7=Rainer Rainer - Üks kummaline unenägu
TTITLE8=N-Euro - Kopli karneval
TTITLE9=Tarmo Pihlap - Miks sa vaatad täis igatsust teele
TTITLE10=Im - Sa mulle päikesepaiste tõid
TTITLE11=Mati Nuude - Suvi
TTITLE12=Jüri Homenja - Vanamees
TTITLE13=Armin - Kevade päike
TTITLE14=Marco - Ootan ma
TTITLE15=Üllar Jörberg - Kallim viib mured
TTITLE16=Hovery Covery - Kaks säravat silma
TTITLE17=Rainer Rainer - Suudle
EXTD=
EXTT0=
EXTT1=
EXTT2=
EXTT3=
EXTT4=
EXTT5=
EXTT6=
EXTT7=
EXTT8=
EXTT9=
EXTT10=
EXTT11=
EXTT12=
EXTT13=
EXTT14=
EXTT15=
EXTT16=
EXTT17=
PLAYORDER=
